<svg width="28" height="28" viewBox="0 0 28 28" fill="none" xmlns="http://www.w3.org/2000/svg">
<path d="M24.5933 8.16668C24.3918 7.8174 24.1031 7.52633 23.7555 7.32186C23.4079 7.11739 23.0132 7.00651 22.61 7.00001H7.67667L7 4.36335C6.93164 4.10882 6.77911 3.88495 6.56726 3.72818C6.35541 3.57141 6.09673 3.49099 5.83334 3.50001H3.5C3.19058 3.50001 2.89384 3.62293 2.67504 3.84172C2.45625 4.06051 2.33334 4.35726 2.33334 4.66668C2.33334 4.9761 2.45625 5.27284 2.67504 5.49164C2.89384 5.71043 3.19058 5.83335 3.5 5.83335H4.94667L8.16667 17.8033C8.23504 18.0579 8.38757 18.2817 8.59941 18.4385C8.81126 18.5953 9.06995 18.6757 9.33334 18.6667H19.8333C20.0488 18.666 20.2598 18.6057 20.4431 18.4925C20.6264 18.3792 20.7747 18.2174 20.8717 18.025L24.6983 10.3717C24.8642 10.024 24.9414 9.64073 24.9231 9.25598C24.9048 8.87123 24.7915 8.497 24.5933 8.16668V8.16668Z" fill="#FF76F9"/>
<path d="M8.75001 24.5C9.71651 24.5 10.5 23.7165 10.5 22.75C10.5 21.7835 9.71651 21 8.75001 21C7.78351 21 7.00001 21.7835 7.00001 22.75C7.00001 23.7165 7.78351 24.5 8.75001 24.5Z" fill="#FF76F9"/>
<path d="M20.4167 24.5C21.3832 24.5 22.1667 23.7165 22.1667 22.75C22.1667 21.7835 21.3832 21 20.4167 21C19.4502 21 18.6667 21.7835 18.6667 22.75C18.6667 23.7165 19.4502 24.5 20.4167 24.5Z" fill="#FF76F9"/>
</svg>
