<svg width="29" height="29" viewBox="0 0 29 29" fill="none" xmlns="http://www.w3.org/2000/svg">
<path d="M14.86 24.9382C14.7065 24.9391 14.5543 24.9096 14.4121 24.8516C14.27 24.7935 14.1407 24.708 14.0317 24.5999L4.9667 15.5232C3.82963 14.3742 3.19181 12.823 3.19181 11.2065C3.19181 9.59003 3.82963 8.03882 4.9667 6.88986C6.11268 5.74712 7.66501 5.10541 9.28337 5.10541C10.9017 5.10541 12.4541 5.74712 13.6 6.88986L14.86 8.14986L16.12 6.88986C17.266 5.74712 18.8183 5.10541 20.4367 5.10541C22.0551 5.10541 23.6074 5.74712 24.7534 6.88986C25.8905 8.03882 26.5283 9.59003 26.5283 11.2065C26.5283 12.823 25.8905 14.3742 24.7534 15.5232L15.6884 24.5999C15.5794 24.708 15.4501 24.7935 15.3079 24.8516C15.1658 24.9096 15.0136 24.9391 14.86 24.9382Z" fill="#FF76F9"/>
</svg>
