<svg width="20" height="20" viewBox="0 0 20 20" fill="none" xmlns="http://www.w3.org/2000/svg">
<path d="M17.0167 8.48333L10.5917 1.91666C10.5142 1.83856 10.422 1.77656 10.3205 1.73426C10.2189 1.69195 10.11 1.67017 9.99999 1.67017C9.88998 1.67017 9.78106 1.69195 9.67951 1.73426C9.57796 1.77656 9.48579 1.83856 9.40832 1.91666L2.98332 8.49166C2.82785 8.64839 2.70507 8.83444 2.6221 9.039C2.53912 9.24357 2.49762 9.46259 2.49999 9.68333V16.6667C2.49934 17.0933 2.6623 17.5039 2.9553 17.8139C3.2483 18.124 3.64904 18.3099 4.07499 18.3333H15.925C16.3509 18.3099 16.7517 18.124 17.0447 17.8139C17.3377 17.5039 17.5006 17.0933 17.5 16.6667V9.68333C17.5007 9.23578 17.3273 8.80548 17.0167 8.48333ZM8.33332 16.6667V11.6667H11.6667V16.6667H8.33332ZM15.8333 16.6667H13.3333V10.8333C13.3333 10.6123 13.2455 10.4004 13.0892 10.2441C12.933 10.0878 12.721 10 12.5 10H7.49999C7.27898 10 7.06701 10.0878 6.91073 10.2441C6.75445 10.4004 6.66666 10.6123 6.66666 10.8333V16.6667H4.16666V9.65L9.99999 3.69166L15.8333 9.68333V16.6667Z" fill="#FF76F9"/>
</svg>
