<svg width="20" height="20" viewBox="0 0 20 20" fill="none" xmlns="http://www.w3.org/2000/svg">
<path d="M16.7667 5.59167L14.4083 3.23333C13.9399 2.76436 13.3045 2.50058 12.6417 2.5H7.35833C6.69552 2.50058 6.06006 2.76436 5.59167 3.23333L3.23333 5.59167C2.76436 6.06006 2.50058 6.69552 2.5 7.35833V15C2.5 15.663 2.76339 16.2989 3.23223 16.7678C3.70107 17.2366 4.33696 17.5 5 17.5H15C15.663 17.5 16.2989 17.2366 16.7678 16.7678C17.2366 16.2989 17.5 15.663 17.5 15V7.35833C17.4994 6.69552 17.2356 6.06006 16.7667 5.59167V5.59167ZM6.76667 4.40833C6.92636 4.25606 7.13769 4.16974 7.35833 4.16667H12.6417C12.8623 4.16974 13.0736 4.25606 13.2333 4.40833L14.6583 5.83333H5.34167L6.76667 4.40833ZM15 15.8333H5C4.77899 15.8333 4.56702 15.7455 4.41074 15.5893C4.25446 15.433 4.16667 15.221 4.16667 15V7.5H15.8333V15C15.8333 15.221 15.7455 15.433 15.5893 15.5893C15.433 15.7455 15.221 15.8333 15 15.8333Z" fill="#FF76F9"/>
<path d="M12.5 9.16667C12.279 9.16667 12.067 9.25447 11.9107 9.41075C11.7545 9.56703 11.6667 9.77899 11.6667 10C11.6667 10.442 11.4911 10.866 11.1785 11.1785C10.8659 11.4911 10.442 11.6667 9.99999 11.6667C9.55796 11.6667 9.13404 11.4911 8.82148 11.1785C8.50892 10.866 8.33332 10.442 8.33332 10C8.33332 9.77899 8.24553 9.56703 8.08925 9.41075C7.93297 9.25447 7.721 9.16667 7.49999 9.16667C7.27898 9.16667 7.06701 9.25447 6.91073 9.41075C6.75445 9.56703 6.66666 9.77899 6.66666 10C6.66666 10.8841 7.01785 11.7319 7.64297 12.357C8.26809 12.9821 9.11593 13.3333 9.99999 13.3333C10.884 13.3333 11.7319 12.9821 12.357 12.357C12.9821 11.7319 13.3333 10.8841 13.3333 10C13.3333 9.77899 13.2455 9.56703 13.0892 9.41075C12.933 9.25447 12.721 9.16667 12.5 9.16667Z" fill="#FF76F9"/>
</svg>
