<svg width="40" height="40" viewBox="0 0 40 40" fill="none" xmlns="http://www.w3.org/2000/svg">
<path d="M29.2667 35C29.0001 35.0011 28.7372 34.9382 28.5 34.8167L20 30.3667L11.5 34.8167C11.224 34.9618 10.9128 35.0266 10.6018 35.0037C10.2908 34.9808 9.99246 34.8711 9.74071 34.687C9.48896 34.503 9.2939 34.252 9.17769 33.9626C9.06148 33.6733 9.02879 33.3571 9.08333 33.05L10.75 23.6667L3.88333 17C3.6691 16.7863 3.51712 16.5182 3.44371 16.2245C3.37031 15.9309 3.37824 15.6228 3.46667 15.3334C3.56327 15.0372 3.74096 14.774 3.97958 14.5736C4.21821 14.3733 4.5082 14.2439 4.81667 14.2001L14.3167 12.8167L18.5 4.26672C18.6365 3.98494 18.8496 3.74729 19.1148 3.58101C19.3801 3.41473 19.6869 3.32654 20 3.32654C20.3131 3.32654 20.6199 3.41473 20.8851 3.58101C21.1504 3.74729 21.3635 3.98494 21.5 4.26672L25.7333 12.8L35.2333 14.1834C35.5418 14.2272 35.8318 14.3567 36.0704 14.557C36.309 14.7573 36.4867 15.0205 36.5833 15.3167C36.6718 15.6062 36.6797 15.9142 36.6063 16.2079C36.5329 16.5015 36.3809 16.7696 36.1667 16.9834L29.3 23.65L30.9667 33.0334C31.0262 33.3458 30.995 33.6688 30.8769 33.9641C30.7587 34.2594 30.5586 34.5148 30.3 34.7C29.9982 34.9115 29.6348 35.017 29.2667 35V35Z" fill="#00EC42"/>
<path d="M10.7333 4.9999C10.9999 4.99883 11.2628 5.0617 11.5 5.18323L20 9.63323L28.5 5.18323C28.776 5.0381 29.0872 4.97331 29.3982 4.99623C29.7092 5.01915 30.0075 5.12887 30.2593 5.31291C30.511 5.49694 30.7061 5.74792 30.8223 6.0373C30.9385 6.32668 30.9712 6.64286 30.9167 6.9499L29.25 16.3332L36.1167 22.9999C36.3309 23.2137 36.4829 23.4818 36.5563 23.7754C36.6297 24.069 36.6218 24.3771 36.5333 24.6666C36.4367 24.9628 36.259 25.226 36.0204 25.4263C35.7818 25.6266 35.4918 25.756 35.1833 25.7999L25.6833 27.1832L21.5 35.7332C21.3635 36.015 21.1504 36.2526 20.8852 36.4189C20.6199 36.5852 20.3131 36.6734 20 36.6734C19.6869 36.6734 19.3801 36.5852 19.1149 36.4189C18.8496 36.2526 18.6365 36.015 18.5 35.7332L14.2667 27.1999L4.76667 25.8166C4.45821 25.7727 4.16821 25.6433 3.92959 25.443C3.69096 25.2426 3.51327 24.9794 3.41667 24.6832C3.32824 24.3938 3.32031 24.0857 3.39372 23.7921C3.46712 23.4984 3.6191 23.2303 3.83334 23.0166L10.7 16.3499L9.03334 6.96657C8.97384 6.6541 9.00499 6.33114 9.12312 6.03582C9.24125 5.74049 9.44143 5.48513 9.7 5.2999C10.0018 5.08841 10.3652 4.98291 10.7333 4.9999V4.9999Z" fill="#00EC42"/>
<path d="M10.3103 23H9.1041V17.2474H10.3103V18.2835C10.5062 17.933 10.7742 17.6598 11.1144 17.4639C11.4649 17.2577 11.8361 17.1546 12.2278 17.1546C12.8979 17.1546 13.4288 17.3557 13.8206 17.7577C14.2123 18.1598 14.4082 18.732 14.4082 19.4742V23H13.1866V19.8454C13.1866 18.7835 12.7484 18.2526 11.8721 18.2526C11.4288 18.2526 11.0577 18.3969 10.7587 18.6856C10.4598 18.9639 10.3103 19.3608 10.3103 19.8763V23ZM21.4419 20.6495H16.9265C16.9574 21.0619 17.1481 21.3969 17.4986 21.6546C17.8491 21.9124 18.2564 22.0412 18.7203 22.0412C19.4522 22.0412 19.9986 21.8144 20.3594 21.3608L21.0553 22.1186C20.4368 22.768 19.6275 23.0928 18.6275 23.0928C17.8027 23.0928 17.112 22.8196 16.5553 22.2732C15.9986 21.7268 15.7203 21.0052 15.7203 20.1082C15.7203 19.232 16.0038 18.5206 16.5708 17.9742C17.1378 17.4278 17.8234 17.1546 18.6275 17.1546C19.4316 17.1546 20.1017 17.3969 20.6378 17.8814C21.1739 18.366 21.4419 19.0103 21.4419 19.8144V20.6495ZM20.2357 19.6907C20.2357 19.2268 20.0862 18.8608 19.7873 18.5928C19.4986 18.3247 19.1223 18.1907 18.6584 18.1907C18.1945 18.1907 17.7873 18.3299 17.4368 18.6082C17.0966 18.8866 16.9265 19.2474 16.9265 19.6907H20.2357ZM25.4765 23H24.0847L22.1053 17.2474H23.3579L24.7806 21.5928L26.2187 17.2474H27.4713L28.894 21.5928L30.3321 17.2474H31.5847L29.5899 23H28.1981L26.8373 19.0567L25.4765 23Z" fill="white"/>
<path d="M10.3103 23V23.2H10.5103V23H10.3103ZM9.1041 23H8.9041V23.2H9.1041V23ZM9.1041 17.2474V17.0474H8.9041V17.2474H9.1041ZM10.3103 17.2474H10.5103V17.0474H10.3103V17.2474ZM10.3103 18.2835H10.1103V19.0514L10.4849 18.3811L10.3103 18.2835ZM11.1144 17.4639L11.2142 17.6372L11.2158 17.6363L11.1144 17.4639ZM13.8206 17.7577L13.6773 17.8973L13.8206 17.7577ZM14.4082 23V23.2H14.6082V23H14.4082ZM13.1866 23H12.9866V23.2H13.1866V23ZM10.7587 18.6856L10.895 18.832L10.8977 18.8294L10.7587 18.6856ZM10.3103 22.8H9.1041V23.2H10.3103V22.8ZM9.3041 23V17.2474H8.9041V23H9.3041ZM9.1041 17.4474H10.3103V17.0474H9.1041V17.4474ZM10.1103 17.2474V18.2835H10.5103V17.2474H10.1103ZM10.4849 18.3811C10.6635 18.0613 10.9061 17.8147 11.2142 17.6372L11.0146 17.2906C10.6423 17.5049 10.3488 17.8046 10.1357 18.1859L10.4849 18.3811ZM11.2158 17.6363C11.5368 17.4475 11.8731 17.3546 12.2278 17.3546V16.9546C11.799 16.9546 11.393 17.068 11.013 17.2915L11.2158 17.6363ZM12.2278 17.3546C12.8552 17.3546 13.3304 17.5413 13.6773 17.8973L13.9638 17.6182C13.5273 17.1701 12.9406 16.9546 12.2278 16.9546V17.3546ZM13.6773 17.8973C14.0222 18.2512 14.2082 18.7668 14.2082 19.4742H14.6082C14.6082 18.6972 14.4025 18.0684 13.9638 17.6182L13.6773 17.8973ZM14.2082 19.4742V23H14.6082V19.4742H14.2082ZM14.4082 22.8H13.1866V23.2H14.4082V22.8ZM13.3866 23V19.8454H12.9866V23H13.3866ZM13.3866 19.8454C13.3866 19.2919 13.2732 18.8397 13.0122 18.5235C12.7452 18.1999 12.3523 18.0526 11.8721 18.0526V18.4526C12.2683 18.4526 12.5326 18.5707 12.7037 18.7781C12.8809 18.9928 12.9866 19.3369 12.9866 19.8454H13.3866ZM11.8721 18.0526C11.3808 18.0526 10.9587 18.2145 10.6198 18.5417L10.8977 18.8294C11.1567 18.5793 11.4769 18.4526 11.8721 18.4526V18.0526ZM10.6225 18.5392C10.2728 18.8648 10.1103 19.3208 10.1103 19.8763H10.5103C10.5103 19.4009 10.6468 19.0631 10.895 18.8319L10.6225 18.5392ZM10.1103 19.8763V23H10.5103V19.8763H10.1103ZM21.4419 20.6495V20.8495H21.6419V20.6495H21.4419ZM16.9265 20.6495V20.4495H16.7109L16.727 20.6644L16.9265 20.6495ZM17.4986 21.6546L17.3801 21.8158L17.3801 21.8158L17.4986 21.6546ZM20.3594 21.3608L20.5068 21.2255L20.3485 21.0533L20.2029 21.2363L20.3594 21.3608ZM21.0553 22.1186L21.2001 22.2565L21.3291 22.121L21.2026 21.9833L21.0553 22.1186ZM16.5553 22.2732L16.4152 22.4159L16.4152 22.4159L16.5553 22.2732ZM16.5708 17.9742L16.432 17.8302L16.432 17.8302L16.5708 17.9742ZM20.2357 19.6907V19.8907H20.4357V19.6907H20.2357ZM19.7873 18.5928L19.6512 18.7394L19.6538 18.7417L19.7873 18.5928ZM17.4368 18.6082L17.3124 18.4516L17.3101 18.4535L17.4368 18.6082ZM16.9265 19.6907H16.7265V19.8907H16.9265V19.6907ZM21.4419 20.4495H16.9265V20.8495H21.4419V20.4495ZM16.727 20.6644C16.7626 21.1384 16.9854 21.5255 17.3801 21.8158L17.6171 21.4935C17.3108 21.2683 17.1522 20.9853 17.1259 20.6345L16.727 20.6644ZM17.3801 21.8158C17.7673 22.1005 18.2167 22.2412 18.7203 22.2412V21.8412C18.296 21.8412 17.9309 21.7243 17.6171 21.4935L17.3801 21.8158ZM18.7203 22.2412C19.4957 22.2412 20.1075 21.9988 20.516 21.4853L20.2029 21.2363C19.8898 21.63 19.4088 21.8412 18.7203 21.8412V22.2412ZM20.2121 21.4961L20.908 22.2538L21.2026 21.9833L20.5068 21.2255L20.2121 21.4961ZM20.9105 21.9806C20.3342 22.5857 19.5797 22.8928 18.6275 22.8928V23.2928C19.6753 23.2928 20.5393 22.9504 21.2001 22.2565L20.9105 21.9806ZM18.6275 22.8928C17.8518 22.8928 17.2124 22.6379 16.6954 22.1305L16.4152 22.4159C17.0116 23.0013 17.7537 23.2928 18.6275 23.2928V22.8928ZM16.6954 22.1305C16.1829 21.6274 15.9203 20.9602 15.9203 20.1082H15.5203C15.5203 21.0501 15.8144 21.8262 16.4152 22.4159L16.6954 22.1305ZM15.9203 20.1082C15.9203 19.2795 16.1863 18.6225 16.7096 18.1182L16.432 17.8302C15.8213 18.4187 15.5203 19.1844 15.5203 20.1082H15.9203ZM16.7096 18.1182C17.2384 17.6086 17.8739 17.3546 18.6275 17.3546V16.9546C17.7728 16.9546 17.0372 17.2471 16.432 17.8302L16.7096 18.1182ZM18.6275 17.3546C19.3881 17.3546 20.0086 17.5823 20.5037 18.0298L20.7719 17.7331C20.1948 17.2115 19.4751 16.9546 18.6275 16.9546V17.3546ZM20.5037 18.0298C20.9928 18.4719 21.2419 19.0598 21.2419 19.8144H21.6419C21.6419 18.9609 21.3549 18.26 20.7719 17.7331L20.5037 18.0298ZM21.2419 19.8144V20.6495H21.6419V19.8144H21.2419ZM20.4357 19.6907C20.4357 19.1797 20.2688 18.7559 19.9208 18.4439L19.6538 18.7417C19.9037 18.9658 20.0357 19.2739 20.0357 19.6907H20.4357ZM19.9234 18.4462C19.5913 18.1378 19.1633 17.9907 18.6584 17.9907V18.3907C19.0814 18.3907 19.406 18.5116 19.6512 18.7393L19.9234 18.4462ZM18.6584 17.9907C18.1511 17.9907 17.6996 18.1441 17.3124 18.4516L17.5611 18.7649C17.8749 18.5157 18.2379 18.3907 18.6584 18.3907V17.9907ZM17.3101 18.4535C16.923 18.7702 16.7265 19.188 16.7265 19.6907H17.1265C17.1265 19.3068 17.2701 19.003 17.5634 18.763L17.3101 18.4535ZM16.9265 19.8907H20.2357V19.4907H16.9265V19.8907ZM25.4765 23V23.2H25.619L25.6655 23.0652L25.4765 23ZM24.0847 23L23.8956 23.0651L23.942 23.2H24.0847V23ZM22.1053 17.2474V17.0474H21.825L21.9162 17.3125L22.1053 17.2474ZM23.3579 17.2474L23.548 17.1852L23.5029 17.0474H23.3579V17.2474ZM24.7806 21.5928L24.5905 21.655L24.7796 22.2324L24.9705 21.6556L24.7806 21.5928ZM26.2187 17.2474V17.0474H26.0743L26.0289 17.1846L26.2187 17.2474ZM27.4713 17.2474L27.6614 17.1852L27.6163 17.0474H27.4713V17.2474ZM28.894 21.5928L28.7039 21.655L28.893 22.2324L29.0839 21.6556L28.894 21.5928ZM30.3321 17.2474V17.0474H30.1877L30.1423 17.1846L30.3321 17.2474ZM31.5847 17.2474L31.7737 17.3129L31.8657 17.0474H31.5847V17.2474ZM29.5899 23V23.2H29.7322L29.7788 23.0655L29.5899 23ZM28.1981 23L28.0091 23.0652L28.0556 23.2H28.1981V23ZM26.8373 19.0567L27.0263 18.9915L26.8373 18.4436L26.6482 18.9915L26.8373 19.0567ZM25.4765 22.8H24.0847V23.2H25.4765V22.8ZM24.2738 22.9349L22.2944 17.1823L21.9162 17.3125L23.8956 23.0651L24.2738 22.9349ZM22.1053 17.4474H23.3579V17.0474H22.1053V17.4474ZM23.1678 17.3097L24.5905 21.655L24.9707 21.5306L23.548 17.1852L23.1678 17.3097ZM24.9705 21.6556L26.4086 17.3103L26.0289 17.1846L24.5907 21.5299L24.9705 21.6556ZM26.2187 17.4474H27.4713V17.0474H26.2187V17.4474ZM27.2812 17.3097L28.7039 21.655L29.0841 21.5306L27.6614 17.1852L27.2812 17.3097ZM29.0839 21.6556L30.522 17.3103L30.1423 17.1846L28.7041 21.5299L29.0839 21.6556ZM30.3321 17.4474H31.5847V17.0474H30.3321V17.4474ZM31.3957 17.1819L29.4009 22.9345L29.7788 23.0655L31.7737 17.3129L31.3957 17.1819ZM29.5899 22.8H28.1981V23.2H29.5899V22.8ZM28.3872 22.9348L27.0263 18.9915L26.6482 19.1219L28.0091 23.0652L28.3872 22.9348ZM26.6482 18.9915L25.2874 22.9348L25.6655 23.0652L27.0263 19.1219L26.6482 18.9915Z" fill="white"/>
</svg>
