<svg width="28" height="28" viewBox="0 0 28 28" fill="none" xmlns="http://www.w3.org/2000/svg">
<path d="M14 12.8333C14.923 12.8333 15.8252 12.5596 16.5927 12.0469C17.3601 11.5341 17.9582 10.8052 18.3114 9.95253C18.6647 9.0998 18.7571 8.16149 18.577 7.25625C18.3969 6.351 17.9525 5.51948 17.2998 4.86684C16.6472 4.21419 15.8157 3.76974 14.9104 3.58967C14.0052 3.40961 13.0669 3.50202 12.2141 3.85523C11.3614 4.20844 10.6326 4.80658 10.1198 5.57401C9.60703 6.34144 9.33334 7.24369 9.33334 8.16667C9.33334 9.40435 9.825 10.5913 10.7002 11.4665C11.5753 12.3417 12.7623 12.8333 14 12.8333Z" fill="#FF76F9"/>
<path d="M21 24.5C21.3094 24.5 21.6062 24.3771 21.825 24.1583C22.0438 23.9395 22.1667 23.6427 22.1667 23.3333C22.1667 21.1674 21.3063 19.0902 19.7747 17.5586C18.2432 16.0271 16.1659 15.1667 14 15.1667C11.8341 15.1667 9.75684 16.0271 8.2253 17.5586C6.69375 19.0902 5.83334 21.1674 5.83334 23.3333C5.83334 23.6427 5.95625 23.9395 6.17504 24.1583C6.39384 24.3771 6.69058 24.5 7 24.5H21Z" fill="#FF76F9"/>
</svg>
